<svg xmlns="http://www.w3.org/2000/svg" viewBox="0 0 100 100">
  <path style="isolation:auto;mix-blend-mode:normal;solid-color:#000;solid-opacity:1" d="M49.992 14.227c-19.802.009-36.68 14.367-39.863 33.912a17.993 17.993 0 00-9 15.558c0 9.938 8.055 17.994 17.992 17.994.283 0 .565-.015.848-.03.33-.06.607-.158.838-.31-4.559-6.661-7.236-14.58-7.243-22.905 0-21.34 16.309-38.64 36.428-38.641 20.12 0 36.43 17.3 36.428 38.64-.008 8.285-2.656 16.17-7.176 22.813.267.211.594.341 1.008.41.209.01.418.024.627.024 9.937 0 17.993-8.057 17.992-17.994a17.993 17.993 0 00-9-15.559l.002.01-.053-.082.057.122.002.01-.059-.088.002.037h-.002C86.642 28.61 69.783 14.253 49.992 14.227z" overflow="visible"/>
  <path d="M19.008 58.782h3.875v11.825h-3.875zM24.819 60.563h3.875v8.264h-3.875zM30.63 55.221h3.875v18.947H30.63zM36.441 48.261h3.875v32.867h-3.875zM42.252 53.926h3.875v21.536h-3.875zM48.062 44.376h3.875v40.636h-3.875zM53.873 57.151h3.875v15.088h-3.875zM59.684 51.336h3.875v26.716h-3.875zM65.495 45.833h3.875v37.723h-3.875zM71.306 54.25h3.875v20.889h-3.875zM77.117 60.886h3.875v7.616h-3.875z"/>
</svg>